<svg xmlns="http://www.w3.org/2000/svg" width="572.20309" height="67.97068" viewBox="0 0 151.3954 17.98391">
  <defs />
  <g>
    <path fill="#000"
      d="M25.30078.33486l-10.14512 9.0165h.94258q1.73633 0 1.73633 1.5255 0 .5085-.23565 1.16582l-1.31464 3.7579h5.14697q-.5705 1.98438-3.60908 1.98438h-4.34082q-1.78594 0-1.78594-1.32705 0-.31006.11162-.65732l1.64951-4.94854-6.47402 5.7671q-1.31465 1.16581-3.02617 1.16581h-2.0836l5.06016-14.3247H0L1.89756.33485h7.72666q2.1208 0 2.1208 1.5999 0 .5457-.24805 1.26505L8.4832 12.14189 21.43125.33486z" />
    <path fill="#000"
      d="M30.7454 4.2664q0 1.24024-.96737 2.1084-.95498.86817-2.30684.86817-1.37666 0-2.34404-.86816-.95498-.86817-.95498-2.1084 0-1.22784.95498-2.096.96738-.86816 2.34404-.86816 1.35186 0 2.30684.86816.96738.86816.96738 2.096zm.89298 11.53419q-.32246 1.0914-1.33946 1.6123-.73173.37207-1.5875.37207H23.8125q-1.77354 0-1.77354-1.48828 0-.42168.17364-.90537l2.158-6.03994h4.50206l-2.29444 6.44922zM52.3751 9.35137l-2.24483 6.44922q-.91777 1.98437-3.08818 1.98437H40.7665q-1.6495 0-1.83554-1.0914-.90537 1.0914-2.6169 1.0914h-2.20761q-1.83555 0-1.83555-1.30225 0-.31005.13642-.68212l2.25723-6.44922h4.50205l-2.31924 6.44922h2.15801l2.31924-6.44922h4.44004l-2.25723 6.44922h2.1084l2.30684-6.44922zM62.84267 4.2664q0 1.24024-.96738 2.1084-.95498.86817-2.30683.86817-1.37666 0-2.34405-.86816-.95498-.86817-.95498-2.1084 0-1.22784.95498-2.096.96739-.86816 2.34405-.86816 1.35185 0 2.30683.86816.96738.86816.96738 2.096zm.89297 11.53419q-.32246 1.0914-1.33945 1.6123-.73174.37207-1.5875.37207h-4.89892q-1.77354 0-1.77354-1.48828 0-.42168.17363-.90537l2.158-6.03994h4.50206l-2.29443 6.44922zM83.82744 2.97656q-.01241 1.63711-1.14102 3.02617l-7.9747 9.79786q-1.6123 1.98437-3.63389 1.98437h-3.175l1.25264-14.3247h-5.74229l1.84795-3.1254h6.00274q1.00459 0 1.68672.62012.68212.62012.68212 1.5751 0 .12402-.0124.24805L72.33045 15.3913l7.59023-9.46299q-1.16582-.22324-1.93476-1.0294-.75655-.81855-.75655-1.92236 0-1.22783.96739-2.096Q79.16415 0 80.5284 0q1.37666 0 2.34404.88057.96739.88056.95498 2.096zM91.0704 4.2664q0 1.24024-.96737 2.1084-.95498.86817-2.30684.86817-1.37666 0-2.34404-.86816-.95498-.86817-.95498-2.1084 0-1.22784.95498-2.096.96738-.86816 2.34404-.86816 1.35186 0 2.30684.86816.96738.86816.96738 2.096zm.89298 11.53419q-.32246 1.0914-1.33946 1.6123-.73173.37207-1.5875.37207H84.1375q-1.77354 0-1.77354-1.48828 0-.42168.17364-.90537l2.158-6.03994h4.50206l-2.29444 6.44922zM107.76396 15.80059q-.0496.83095-.95498 1.41386-.89297.57051-1.95957.57051h-9.42578q-2.71611 0-2.71611-1.66191 0-.14883.02479-.32246.09922-.74414.79375-1.15342.59531-.35967 1.36426-.34727 1.33945.03721 3.63388 1.47588.65733-.81855.65733-1.66191 0-.42168-.5333-1.92237l-1.40147 1.27745H94.7663l3.29903-3.05098q-.22325-.38447-.31006-.63252-.16123-.45889-.17363-1.0418l3.05097-3.24941q2.0588.34726 2.0588 1.87275 0 .89297-.53331 1.64951.45889 1.21543.93018 2.43086.5705 1.5627.5705 2.53008 0 1.0666-.84335 1.82315zM117.11533 4.2664q0 1.24024-.96738 2.1084-.95498.86817-2.30684.86817-1.37666 0-2.34404-.86816-.95498-.86817-.95498-2.1084 0-1.22784.95498-2.096.96738-.86816 2.34404-.86816 1.35186 0 2.30684.86816.96738.86816.96738 2.096zm.89297 11.53419q-.32246 1.0914-1.33945 1.6123-.73174.37207-1.5875.37207h-4.89893q-1.77354 0-1.77354-1.48828 0-.42168.17364-.90537l2.158-6.03994h4.50206l-2.29444 6.44922zM139.93564 9.35137q-.4961 1.98437-2.97656 1.98437h-7.76387q.40928.27285.66973 1.0046.26045.71933.21084 1.25263-.17363 2.07119-1.82315 3.24941-1.5751 1.12862-4.09277 1.14102-2.92695.02479-4.50205-1.15342-1.40146-1.0418-1.40146-2.74092 0-.33486.062-.66972.32247-1.87276 1.86036-2.93936 1.6371-1.12861 4.36562-1.12861zm-13.51855 1.98437h-2.84014l-1.1162 3.175q-.08683.24805-.08683.4713 0 1.0666 1.98438 1.0666.23564 0 .40928-.01242z" />
    <path fill="#000"
      d="M151.3954 15.80059q-.32245 1.0914-1.42626 1.6123-.78135.37207-1.67432.37207h-4.94853q-1.69912 0-1.69912-1.11621 0-.37207.17363-.86816l.94258-2.6665-4.26641 3.60907q-1.50068 1.0418-2.46807 1.0418h-2.28203l2.96416-8.4336h4.47725l-1.40147 3.96876 3.78272-3.10059q1.53789-1.25264 3.33623-1.20303 1.21543.04961 1.21543 1.28985 0 .45888-.19844 1.0294l-1.5999 4.46484z" />
  </g>
</svg>
