<?xml version="1.0" encoding="iso-8859-1"?>
<!-- Generator: Adobe Illustrator 17.1.0, SVG Export Plug-In . SVG Version: 6.00 Build 0)  -->
<!DOCTYPE svg PUBLIC "-//W3C//DTD SVG 1.1//EN" "http://www.w3.org/Graphics/SVG/1.1/DTD/svg11.dtd">
<svg version="1.1" id="Capa_1" xmlns="http://www.w3.org/2000/svg" xmlns:xlink="http://www.w3.org/1999/xlink" x="0px" y="0px"
	 viewBox="0 0 253.032 253.032" style="enable-background:new 0 0 253.032 253.032;" xml:space="preserve">
<g>
	<path style="fill:#000002;" d="M180.29,0H72.742c-12.406,0-22.5,10.094-22.5,22.5v208.032c0,12.406,10.094,22.5,22.5,22.5H180.29
		c12.406,0,22.5-10.094,22.5-22.5V22.5C202.79,10.094,192.697,0,180.29,0z M187.79,230.532c0,4.136-3.364,7.5-7.5,7.5H72.742
		c-4.136,0-7.5-3.364-7.5-7.5V22.5c0-4.136,3.364-7.5,7.5-7.5H180.29c4.136,0,7.5,3.364,7.5,7.5V230.532z"/>
	<path style="fill:#000002;" d="M109.382,138.79H93.465c-4.143,0-7.5,3.357-7.5,7.5c0,4.143,3.357,7.5,7.5,7.5h15.917
		c4.143,0,7.5-3.357,7.5-7.5C116.882,142.147,113.525,138.79,109.382,138.79z"/>
	<path style="fill:#000002;" d="M109.382,169.801H93.465c-4.143,0-7.5,3.357-7.5,7.5c0,4.143,3.357,7.5,7.5,7.5h15.917
		c4.143,0,7.5-3.357,7.5-7.5C116.882,173.158,113.525,169.801,109.382,169.801z"/>
	<path style="fill:#000002;" d="M109.382,200.813H93.465c-4.143,0-7.5,3.357-7.5,7.5s3.357,7.5,7.5,7.5h15.917
		c4.143,0,7.5-3.357,7.5-7.5S113.525,200.813,109.382,200.813z"/>
	<path style="fill:#000002;" d="M159.567,138.79H143.65c-4.143,0-7.5,3.357-7.5,7.5c0,4.143,3.357,7.5,7.5,7.5h15.917
		c4.143,0,7.5-3.357,7.5-7.5C167.067,142.147,163.709,138.79,159.567,138.79z"/>
	<path style="fill:#000002;" d="M159.567,169.801H143.65c-4.143,0-7.5,3.357-7.5,7.5c0,4.143,3.357,7.5,7.5,7.5h15.917
		c4.143,0,7.5-3.357,7.5-7.5C167.067,173.158,163.709,169.801,159.567,169.801z"/>
	<path style="fill:#000002;" d="M159.567,200.813H143.65c-4.143,0-7.5,3.357-7.5,7.5s3.357,7.5,7.5,7.5h15.917
		c4.143,0,7.5-3.357,7.5-7.5S163.709,200.813,159.567,200.813z"/>
	<path style="fill:#000002;" d="M118.558,70.199c-3.313,0-6,2.686-6,6c0,3.313,2.687,6,6,6h15.917c3.313,0,6-2.687,6-6
		c0-3.314-2.687-6-6-6H118.558z"/>
	<path style="fill:#000002;" d="M115.082,56.02c1.535,0,3.071-0.586,4.242-1.757l7.488-7.487l6.893,6.895
		c2.343,2.343,6.143,2.344,8.485,0.001c2.344-2.344,2.344-6.143,0.001-8.485l-10.431-10.431c-2.728-2.731-7.169-2.73-9.899-0.001
		L110.84,45.776c-2.344,2.344-2.344,6.143-0.001,8.485C112.011,55.434,113.546,56.02,115.082,56.02z"/>
	<path style="fill:#000002;" d="M142.192,98.138c-2.342-2.342-6.142-2.343-8.485,0.001l-7.486,7.487l-6.893-6.895
		c-2.343-2.343-6.143-2.344-8.485-0.001c-2.344,2.343-2.344,6.142-0.001,8.485l10.43,10.431c1.364,1.365,3.156,2.048,4.949,2.048
		s3.585-0.683,4.95-2.048l11.022-11.023C144.536,104.28,144.536,100.481,142.192,98.138z"/>
	<path style="fill:#000002;" d="M156.941,60.523c-2.344-2.343-6.142-2.344-8.485-0.001c-2.344,2.343-2.344,6.142-0.001,8.485
		l7.488,7.489l-6.895,6.895c-2.343,2.343-2.343,6.142,0.001,8.485c1.171,1.171,2.707,1.757,4.242,1.757
		c1.535,0,3.071-0.586,4.243-1.758l10.428-10.43c2.729-2.729,2.729-7.17,0.001-9.898L156.941,60.523z"/>
	<path style="fill:#000002;" d="M100.334,93.635c1.535,0,3.071-0.586,4.242-1.757c2.344-2.344,2.344-6.143,0.001-8.485l-7.487-7.488
		l6.895-6.894c2.344-2.344,2.344-6.143,0.001-8.485c-2.343-2.343-6.143-2.344-8.485-0.001L85.07,70.955
		c-2.729,2.729-2.729,7.17-0.001,9.898l11.022,11.023C97.263,93.049,98.798,93.635,100.334,93.635z"/>
</g>
<g>
</g>
<g>
</g>
<g>
</g>
<g>
</g>
<g>
</g>
<g>
</g>
<g>
</g>
<g>
</g>
<g>
</g>
<g>
</g>
<g>
</g>
<g>
</g>
<g>
</g>
<g>
</g>
<g>
</g>
</svg>
