<svg xmlns="http://www.w3.org/2000/svg" viewBox="0 0 512 512">
  <path fill="#000"
    d="M501 335c-12-30-33-54-63-72a77 77 0 00-84-93c-11 1-21-4-26-13-17-29-42-56-71-76-30-21-62-33-90-33-14 0-28 2-42 6a11 11 0 005 21c13-4 25-5 37-5 48 0 110 42 143 98 9 16 28 25 46 23l8-1a56 56 0 0122 107 55 55 0 01-48-1c-15-7-33-6-47 3a181 181 0 01-55 23 293 293 0 01-74 7c-20 0-40-5-58-14-50-24-83-69-83-115 0-39 22-77 59-102a11 11 0 00-12-18c-20 14-37 32-49 52-12 21-19 44-19 68 0 51 33 102 86 130a44 44 0 0031 54v69c0 6 5 11 11 11h34a11 11 0 000-22h-23v-58c12-3 23-12 29-23 5 11 16 20 29 23v69c0 6 4 11 10 11h35a11 11 0 000-22h-24v-58c19-4 33-22 33-42v-3c20-5 37-13 51-22 8-5 18-6 26-2a76 76 0 0063 3c61 18 99 90 100 91a11 11 0 0020-4c1-10 4-38-10-70zm-373 29a23 23 0 01-23-25c15 5 30 9 44 11-3 8-11 14-21 14zm79 0c-9 0-17-5-21-14l44-5c-2 11-11 19-23 19zm207-60c7-6 12-13 17-21 37 24 53 57 58 84-17-21-42-48-75-63z" />
  <path fill="#000"
    d="M111 70c-3-6-9-8-14-6l-3 2a11 11 0 009 19l2-1c6-3 8-9 6-14zM375 221c-6 0-11 5-11 11v7a11 11 0 0021 0v-7c0-6-5-11-10-11z" />
</svg>
