<svg xmlns="http://www.w3.org/2000/svg" viewBox="0 0 253.032 253.032">
  <g fill="#fff">
    <path
      d="M180.29 0H72.742c-12.406 0-22.5 10.094-22.5 22.5v208.032c0 12.406 10.094 22.5 22.5 22.5H180.29c12.406 0 22.5-10.094 22.5-22.5V22.5c0-12.406-10.093-22.5-22.5-22.5zm7.5 230.532c0 4.136-3.364 7.5-7.5 7.5H72.742c-4.136 0-7.5-3.364-7.5-7.5V22.5c0-4.136 3.364-7.5 7.5-7.5H180.29c4.136 0 7.5 3.364 7.5 7.5v208.032z" />
    <path
      d="M109.382 138.79H93.465c-4.143 0-7.5 3.357-7.5 7.5s3.357 7.5 7.5 7.5h15.917c4.143 0 7.5-3.357 7.5-7.5s-3.357-7.5-7.5-7.5zM109.382 169.801H93.465c-4.143 0-7.5 3.357-7.5 7.5s3.357 7.5 7.5 7.5h15.917c4.143 0 7.5-3.357 7.5-7.5s-3.357-7.5-7.5-7.5zM109.382 200.813H93.465c-4.143 0-7.5 3.357-7.5 7.5s3.357 7.5 7.5 7.5h15.917c4.143 0 7.5-3.357 7.5-7.5s-3.357-7.5-7.5-7.5zM159.567 138.79H143.65c-4.143 0-7.5 3.357-7.5 7.5s3.357 7.5 7.5 7.5h15.917c4.143 0 7.5-3.357 7.5-7.5s-3.358-7.5-7.5-7.5zM159.567 169.801H143.65c-4.143 0-7.5 3.357-7.5 7.5s3.357 7.5 7.5 7.5h15.917c4.143 0 7.5-3.357 7.5-7.5s-3.358-7.5-7.5-7.5zM159.567 200.813H143.65c-4.143 0-7.5 3.357-7.5 7.5s3.357 7.5 7.5 7.5h15.917c4.143 0 7.5-3.357 7.5-7.5s-3.358-7.5-7.5-7.5zM118.558 70.199c-3.313 0-6 2.686-6 6 0 3.313 2.687 6 6 6h15.917c3.313 0 6-2.687 6-6 0-3.314-2.687-6-6-6h-15.917zM115.082 56.02c1.535 0 3.071-.586 4.242-1.757l7.488-7.487 6.893 6.895c2.343 2.343 6.143 2.344 8.485.001 2.344-2.344 2.344-6.143.001-8.485L131.76 34.756c-2.728-2.731-7.169-2.73-9.899-.001L110.84 45.776c-2.344 2.344-2.344 6.143-.001 8.485 1.172 1.173 2.707 1.759 4.243 1.759zM142.192 98.138c-2.342-2.342-6.142-2.343-8.485.001l-7.486 7.487-6.893-6.895c-2.343-2.343-6.143-2.344-8.485-.001-2.344 2.343-2.344 6.142-.001 8.485l10.43 10.431c1.364 1.365 3.156 2.048 4.949 2.048s3.585-.683 4.95-2.048l11.022-11.023c2.343-2.343 2.343-6.142-.001-8.485zM156.941 60.523c-2.344-2.343-6.142-2.344-8.485-.001-2.344 2.343-2.344 6.142-.001 8.485l7.488 7.489-6.895 6.895c-2.343 2.343-2.343 6.142.001 8.485 1.171 1.171 2.707 1.757 4.242 1.757 1.535 0 3.071-.586 4.243-1.758l10.428-10.43c2.729-2.729 2.729-7.17.001-9.898l-11.022-11.024zM100.334 93.635c1.535 0 3.071-.586 4.242-1.757 2.344-2.344 2.344-6.143.001-8.485l-7.487-7.488 6.895-6.894c2.344-2.344 2.344-6.143.001-8.485-2.343-2.343-6.143-2.344-8.485-.001L85.07 70.955c-2.729 2.729-2.729 7.17-.001 9.898l11.022 11.023c1.172 1.173 2.707 1.759 4.243 1.759z" />
  </g>
</svg>
